<svg xmlns="http://www.w3.org/2000/svg" width="24" height="24" fill="none" viewBox="0 0 24 24">
    <path fill="#fff" fill-rule="evenodd" d="M5 4c0-.552.448-1 1-1h12c.552 0 1 .448 1 1v16c0 .552-.448 1-1 1H6c-.552 0-1-.448-1-1V4zm12 .7H7c-.166 0-.3.134-.3.3v12c0 .166.134.3.3.3h10c.166 0 .3-.134.3-.3V5c0-.166-.134-.3-.3-.3zM7 4c-.552 0-1 .448-1 1v12c0 .552.448 1 1 1h10c.552 0 1-.448 1-1V5c0-.552-.448-1-1-1H7zm1.545 6.247c-.301.334-.301.875 0 1.208l1.89 2.096c.026.043.056.083.09.12.28.312.736.312 1.016 0l.008-.008.04-.041.038-.045 4.409-4.887c.28-.311.28-.816 0-1.127-.281-.31-.736-.31-1.017 0l-3.903 4.327-1.481-1.643c-.301-.333-.79-.333-1.09 0zM12 20.5c.552 0 1-.448 1-1s-.448-1-1-1-1 .448-1 1 .448 1 1 1z" clip-rule="evenodd"/>
</svg>
