<svg xmlns="http://www.w3.org/2000/svg" width="24" height="24" fill="none" viewBox="0 0 24 24">
    <path fill="#fff" d="M3 12c0 .552.448 1 1 1s1-.448 1-1-.448-1-1-1-1 .448-1 1zm0 4c0 .552.448 1 1 1s1-.448 1-1-.448-1-1-1-1 .448-1 1zm0-8c0 .552.448 1 1 1s1-.448 1-1-.448-1-1-1-1 .448-1 1zm4 4c0 .552.448 1 1 1h12c.552 0 1-.448 1-1s-.448-1-1-1H8c-.552 0-1 .448-1 1zm0 4c0 .552.448 1 1 1h12c.552 0 1-.448 1-1s-.448-1-1-1H8c-.552 0-1 .448-1 1zm1-9c-.552 0-1 .448-1 1s.448 1 1 1h12c.552 0 1-.448 1-1s-.448-1-1-1H8z"/>
</svg>
