<svg width="244" height="40" viewBox="0 0 244 40" fill="none" xmlns="http://www.w3.org/2000/svg">
<g clip-path="url(#clip0)">
<path fill-rule="evenodd" clip-rule="evenodd" d="M39.3381 31.1482L46.8743 18.7271V32.574C46.8465 32.8167 46.7237 33.0387 46.5329 33.1913C46.3421 33.3439 46.0986 33.415 45.8556 33.3889C45.672 33.3898 45.4913 33.3435 45.3307 33.2544C45.1702 33.1653 45.0353 33.0364 44.9391 32.8801C45.0691 32.8768 45.1956 32.8366 45.3038 32.7644C45.412 32.6922 45.4975 32.5908 45.5504 32.472V23.6143C43.6151 26.8727 41.5785 29.9268 39.6433 33.083C39.4396 33.4904 39.1342 33.3889 38.9305 33.083L33.0242 23.6143V32.2682C33.0397 32.443 33.123 32.6047 33.2561 32.719C33.3892 32.8333 33.5618 32.8911 33.7369 32.8801C33.3294 33.5919 31.7003 33.592 31.7003 32.7779V18.7271L39.2365 31.1482H39.3381Z" fill="white"/>
<path fill-rule="evenodd" clip-rule="evenodd" d="M64.0851 32.6764C70.5011 32.6764 73.658 28.8069 74.7782 23.5129H76C75.491 30.0283 70.7042 34 64.0851 34C59.9094 34 56.1414 32.7779 53.7994 29.4179V31.8616C53.9009 32.2683 54.1045 32.9816 54.512 32.9816C54.003 33.8979 52.4754 33.6941 52.5769 32.6764V23.5129H52.7807C53.7994 29.418 57.6689 32.6764 64.0851 32.6764V32.6764ZM52.6791 16.8946C53.0866 10.5814 58.3818 7.32363 64.4926 7.32363C69.7876 7.32363 73.5559 10.1739 74.5746 14.756L70.2974 14.8582C69.9319 13.5481 69.1228 12.4055 68.0083 11.6254C66.8938 10.8454 65.543 10.4764 64.1866 10.5814C63.1806 10.5845 62.1823 10.7568 61.2334 11.0909C60.3817 11.5174 59.6209 12.1051 58.993 12.8213C58.1439 13.8108 57.4875 14.9504 57.0577 16.1813C56.6251 17.4244 56.4184 18.7349 56.4473 20.0508C56.417 21.3001 56.6241 22.5439 57.0577 23.7159C57.4354 25.0101 58.0579 26.2198 58.8915 27.2795C59.4967 28.0355 60.2758 28.634 61.1623 29.024C62.0488 29.414 63.0164 29.584 63.9828 29.5195C65.6771 29.5169 67.3151 28.9108 68.6029 27.81C69.8907 26.7093 70.7442 25.1858 71.0102 23.5129H69.584C69.311 24.8093 68.6337 25.9857 67.6495 26.8728C67.2252 27.3249 66.7024 27.6731 66.1217 27.8905C65.4472 28.1814 64.717 28.3205 63.9828 28.298C63.1828 28.3203 62.3864 28.1817 61.6409 27.8905C60.9593 27.514 60.3408 27.0332 59.808 26.4654C59.1381 25.5199 58.5906 24.4935 58.178 23.4107C57.837 22.3235 57.6653 21.1902 57.669 20.0508C57.5898 18.8857 57.7475 17.7167 58.1326 16.6142C58.5176 15.5117 59.122 14.4986 59.9094 13.6361C60.3995 13.0232 61.0276 12.5349 61.7424 12.2108C62.5212 11.9112 63.3527 11.7727 64.1866 11.8036C65.335 11.733 66.469 12.0889 67.3712 12.8029C68.2733 13.5168 68.8801 14.5387 69.075 15.6724L69.2787 16.2834H76C75.5925 11.7013 73.658 8.2398 68.6674 6.71254C67.323 6.25289 65.9134 6.01231 64.4926 6C59.4005 6 55.9376 7.62881 53.7994 10.5814C53.7994 9.35982 54.0031 8.13774 54.9196 8.03617H55.1233V7.73106V6.9162H45.4482C45.2445 6.9162 45.0413 7.2221 45.0413 7.32363H44.9391L39.1342 19.3382L32.8205 7.32363H32.7182C32.6963 7.25157 32.657 7.186 32.6037 7.13267C32.5505 7.07933 32.485 7.03986 32.413 7.01774H23.8586L23.9602 7.73106V8.03617H24.0625C24.1795 8.04376 24.2939 8.07473 24.3987 8.12728C24.5036 8.17982 24.5968 8.25289 24.6729 8.3421V9.66569C23.2461 8.12722 21.2705 7.21261 19.1741 7.11985H3.99998L5.52773 8.44361V32.0654C5.52773 32.6764 5.42549 33.0831 5.01799 33.0831C5.42549 33.7964 6.54568 33.6941 6.64795 32.9816V8.44361H18.7665V8.54571C19.9346 8.54616 21.0845 8.83432 22.1146 9.3847C23.1448 9.93509 24.0235 10.7308 24.6729 11.7013V11.7013C25.2375 12.5932 25.5863 13.6044 25.6916 14.6546H25.8954V8.3421H32.0055L39.1342 22.5959L46.0593 8.13776H52.4754C52.4754 10.9888 52.3732 14.0434 52.3732 16.8946H52.6791ZM13.8783 18.6256V12.5161H15.406C15.9896 12.5079 16.5717 12.5764 17.1374 12.7198C17.688 12.8879 18.1813 13.2051 18.5628 13.6361C18.911 14.1828 19.0882 14.8208 19.0719 15.4687C19.103 15.963 18.9973 16.4563 18.7665 16.8946C18.6644 17.4034 18.1554 17.7093 17.8501 18.0144C17.6126 18.2097 17.334 18.3487 17.0351 18.4211C16.5365 18.5532 16.0232 18.6219 15.5074 18.6256H13.8783ZM12.4528 19.847V11.2939H15.7112C16.2904 11.267 16.8707 11.3013 17.4426 11.3961C17.9569 11.4928 18.4436 11.7014 18.8681 12.0072C19.3553 12.3807 19.7405 12.8708 19.9883 13.4324C20.2311 14.0853 20.3687 14.7726 20.3958 15.4687C20.4111 16.0933 20.3075 16.7152 20.0906 17.3011C19.9709 17.7454 19.763 18.1611 19.4793 18.5234C19.1999 18.8229 18.893 19.0957 18.5628 19.3382C18.2142 19.5341 17.8358 19.6715 17.4426 19.7449C16.9043 19.8329 16.3585 19.8672 15.8134 19.847H12.4528ZM24.6729 21.3744C21.2108 25.1411 18.8681 24.3269 13.573 24.4284V32.1669C13.6745 32.4721 13.8783 33.0831 14.1835 33.0831C13.7767 33.7964 12.4528 33.6941 12.5542 32.778V23.207H18.7665C21.2108 23.207 23.349 21.2729 24.6729 19.3382C25.238 18.3358 25.5851 17.2255 25.6916 16.0798H25.8954V32.9816C25.7932 33.6941 24.4692 33.6941 24.0625 33.0831C24.4692 33.0831 24.6729 32.4721 24.6729 31.3528V21.3744Z" fill="white"/>
</g>
<rect x="88" y="4" width="1" height="32" fill="white" fill-opacity="0.2"/>
<path fill-rule="evenodd" clip-rule="evenodd" d="M117.814 6C124.302 6 129.87 9.66988 132.033 14.8601H131.994C132.048 15.0253 132.087 15.1748 132.087 15.1748H121.544L119.814 23.3534H118.679L115.489 16.9573L113.975 24.4544H104.584C106.65 27.9557 110.764 30.3787 115.489 30.3787C120.355 30.3787 124.572 27.8097 126.572 24.1399H131.925C129.924 29.2777 124.302 33 117.814 33C111.394 33 105.874 29.406 103.664 24.3013C103.525 24.0452 103.487 23.8252 103.487 23.8252H113.219C113.219 23.8252 114.462 17.6389 114.57 16.9049C114.678 16.1709 113.705 16.1709 113.705 16.1709V15.7515V15.6991H116.571L119.382 21.2563L120.679 14.5457H131.044C128.978 11.0444 124.864 8.62134 120.139 8.62134C115.273 8.62134 111.002 11.1903 109.056 14.8601H103.703C105.758 9.72231 111.326 6 117.814 6ZM230.214 10.8755V9.40756L225.511 9.8794V10.2464C225.835 10.2988 225.997 10.4037 225.997 10.5085V10.9279H224.321H223.024C222.483 10.9279 221.618 11.0328 220.429 11.2949V10.7182L215.671 11.5571V11.8716C215.995 12.0289 216.158 12.1338 216.158 12.291V12.9202H220.429V11.924C221.618 11.6619 222.537 11.5046 223.186 11.5046H224.321H234.864C235.405 11.5046 235.675 11.6619 235.675 12.0289V12.7629L230.809 13.392V13.759C231.296 13.8638 231.512 14.0211 231.512 14.126C231.512 14.493 231.187 14.9648 230.485 15.4891C229.403 16.2755 227.998 16.957 226.268 17.5337V12.291L221.51 13.0774V13.3396C221.888 13.4444 222.105 13.6541 222.105 13.9163V17.9531C222.105 18.1628 222.105 18.3726 222.213 18.5298C220.375 18.8968 218.482 19.159 216.482 19.3162L216.806 19.7881C219.347 19.7881 221.672 19.6308 223.781 19.4211C224.159 19.4735 224.646 19.5259 225.186 19.5259H233.242C234.161 19.5259 234.864 19.3687 235.296 19.0541C235.675 18.792 236.053 18.3201 236.378 17.6386L235.675 17.4289C235.405 17.9531 235.08 18.3201 234.756 18.5298C234.485 18.792 233.999 18.8968 233.242 18.8968H227.457H227.187C230.485 18.1628 232.863 17.1667 234.215 15.8561C235.188 15.0172 235.891 14.0211 236.215 12.8677H240V12.1862C239.946 11.2949 239.081 10.8755 237.459 10.8755H230.214ZM219.726 16.7997C220.429 16.0658 220.915 14.9648 221.186 13.6017L216.536 14.3357V14.7027C216.914 14.8075 217.077 14.9648 217.077 15.1745C217.077 16.3803 216.644 17.5337 215.833 18.6871L216.104 18.8968C217.725 18.425 218.915 17.691 219.726 16.7997ZM221.186 24.8211V20.1551L216.212 21.0463V21.3609C216.698 21.4133 216.969 21.5706 217.023 21.8327V25.3978H238.973V20.0502L234.053 20.9939V21.3085C234.594 21.3609 234.81 21.5182 234.864 21.7803V24.8735H230.106V19.7881L225.24 20.5745V20.8366C225.727 20.9939 225.943 21.256 225.943 21.623V24.8211H221.186ZM229.457 13.1299C228.701 12.6056 227.835 12.0813 226.754 11.6619L226.43 11.924C226.862 12.6056 227.133 13.3396 227.241 14.1784C227.403 14.9648 227.89 15.3842 228.809 15.3842C229.674 15.3318 230.106 14.9648 230.214 14.2308C230.214 13.8638 229.944 13.4969 229.457 13.1299ZM239.081 15.8561C238.378 15.1221 237.513 14.3881 236.486 13.8114L236.107 14.0211C236.432 15.0172 236.594 16.1182 236.702 17.324C236.756 18.2153 237.297 18.6347 238.216 18.6347C239.135 18.5823 239.676 18.1628 239.838 17.3764C239.838 16.8522 239.567 16.3803 239.081 15.8561ZM168.959 10.0364V9.51215L164.796 10.1937V10.4558C165.067 10.4558 165.175 10.6131 165.175 10.8228C165.175 11.2947 165.121 11.7665 164.959 12.1859C164.742 12.9199 164.202 13.4966 163.499 14.0209L163.607 14.2306C164.796 14.0733 165.77 13.8112 166.526 13.4442C167.554 13.0248 168.202 12.3956 168.581 11.5044C168.689 11.3471 168.743 11.085 168.797 10.8228C168.959 10.7704 169.067 10.7704 169.122 10.7704C169.5 10.7704 169.77 10.8753 169.933 11.1374L170.527 12.4481C170.906 13.4442 171.879 13.9684 173.501 13.9684C174.204 13.9684 174.852 13.8112 175.447 13.549V13.182C175.285 13.2345 175.123 13.2869 174.961 13.2869C174.582 13.2869 174.258 12.7626 173.933 11.7141C173.555 10.2986 172.69 9.56458 171.284 9.56458C170.635 9.56458 170.041 9.61701 169.446 9.82671C169.365 9.85293 169.284 9.89225 169.203 9.93157C169.122 9.97089 169.04 10.0102 168.959 10.0364ZM174.852 14.9645L173.555 14.0209C172.636 14.283 172.041 14.3879 171.717 14.283H163.823L165.121 15.2267C165.932 15.017 166.526 14.9121 166.959 14.9121H167.229V16.8519H163.769L165.067 17.848C165.986 17.5859 166.689 17.4286 167.175 17.4286V24.4538H163.607L164.905 25.4499C165.824 25.1878 166.526 25.0829 167.013 25.0829H174.744L173.447 24.0868C172.419 24.349 171.717 24.5062 171.338 24.5062H171.014V17.5335H174.798L173.501 16.5374C172.474 16.7995 171.771 16.9043 171.392 16.9043H171.068V14.9645H174.852ZM166.202 20.2072C165.824 19.5257 165.283 18.8966 164.58 18.2674L164.31 18.4247C164.688 19.5781 164.85 20.5742 164.85 21.4131C164.796 21.9373 164.688 22.514 164.526 23.1431C164.58 23.615 164.959 23.9295 165.77 23.9295C166.094 23.8771 166.418 23.7198 166.635 23.4053C166.743 23.1431 166.797 22.881 166.851 22.6189C166.851 21.8325 166.635 20.9936 166.202 20.2072ZM173.933 21.4655C174.42 20.6791 174.636 19.5257 174.636 18.1102L171.446 18.7917V19.1063C171.825 19.2111 172.041 19.3684 172.041 19.683C172.041 20.6791 172.041 21.4655 171.933 22.0946C171.879 22.7237 171.717 23.3004 171.5 23.7723L171.879 23.8247C172.69 23.248 173.339 22.4616 173.933 21.4655ZM177.664 22.5664C178.258 21.7276 178.637 20.6791 178.799 19.2636L174.906 19.9975V20.2597C175.393 20.3645 175.609 20.5742 175.609 20.9412C175.555 22.0946 175.231 23.3528 174.582 24.6111L174.798 24.7684C176.204 24.0868 177.123 23.3528 177.664 22.5664ZM179.61 10.1937V9.56458L175.015 10.5083V10.7704C175.447 10.8228 175.663 10.9801 175.717 11.2422V15.4888H176.907C176.799 16.0655 176.636 16.6422 176.42 17.0616C176.15 17.6907 175.663 18.3199 174.961 19.0014L175.231 19.2111C177.447 18.8441 178.907 18.3723 179.664 17.6907C179.825 17.6127 179.926 17.5055 180.034 17.391C180.071 17.3517 180.109 17.3115 180.151 17.2713C180.475 17.2189 180.908 17.2189 181.34 17.2189H182.638C183.503 17.2189 183.935 17.5335 183.935 18.1102V23.982C183.935 24.349 183.773 24.5587 183.449 24.5587C183.07 24.5587 182.53 24.4014 181.881 24.0344L181.394 24.349C182.313 25.0305 183.449 25.3451 184.746 25.3451C185.665 25.3451 186.368 25.2926 186.909 25.0829C187.612 24.8208 187.936 24.4538 187.99 24.0344V18.3199C187.99 17.2189 186.909 16.6422 184.746 16.6422H181.286H180.475C180.637 16.3276 180.799 15.9082 180.908 15.4888H187.341V11.4519C187.287 10.351 186.206 9.72186 184.097 9.61701C182.8 9.61701 181.719 9.66943 180.962 9.87914C180.475 9.98399 180.043 10.0888 179.61 10.1937ZM182.043 22.147C182.854 21.1509 183.286 19.7878 183.286 18.0577L179.069 19.0014V19.4208C179.61 19.5257 179.88 19.7354 179.88 20.1548C179.88 21.3082 179.718 22.2519 179.448 22.9334C179.123 23.7198 178.529 24.349 177.772 24.8732L178.258 25.0305C179.718 24.349 180.962 23.3528 182.043 22.147ZM183.395 12.5005H179.61V11.0325C180.854 10.6655 181.989 10.5083 183.07 10.5083C183.286 10.5083 183.395 10.5607 183.395 10.718V12.5005ZM183.395 14.9121H179.61V13.1296H183.395V14.9121ZM137.223 9.77427H157.93C159.12 9.8267 159.66 10.1413 159.66 10.6655C159.606 10.8752 159.011 11.6616 157.93 13.0247H160.147C161.336 13.0247 161.877 13.3917 161.877 14.1257V16.1179C161.715 17.114 160.742 17.5859 159.011 17.6383C157.552 17.6383 156.254 17.3762 155.065 16.7995L155.551 16.3276C155.74 16.394 155.906 16.4552 156.05 16.5078L156.05 16.5078C156.359 16.6212 156.559 16.6946 156.633 16.6946C157.011 16.6946 157.227 16.5373 157.281 16.2752V14.283C157.281 13.8636 156.957 13.6539 156.254 13.6539H153.335C152.524 14.5451 151.551 15.2267 150.523 15.8034C151.767 16.5898 153.172 17.2189 154.794 17.5859L154.578 17.848C152.199 17.6383 150.253 17.2189 148.739 16.5898C147.279 17.1665 145.495 17.5859 143.225 17.848L143.008 17.6383C144.468 17.0616 145.712 16.4325 146.847 15.6461C145.982 15.1218 145.225 14.4927 144.522 13.7587C144.414 13.6014 144.09 13.4442 143.711 13.4442C143.657 14.283 143.441 14.9645 143.117 15.4888C142.306 16.8519 140.684 17.7956 138.251 18.215L137.98 17.9529C138.575 17.2189 139.008 16.3801 139.278 15.4888C139.44 14.8597 139.548 14.0209 139.548 12.9723V10.5607C139.278 10.6131 138.899 10.718 138.413 10.8752L137.223 9.77427ZM143.441 18.0053V18.6344C145.117 18.2674 146.36 18.1101 147.117 18.1101L148.739 18.0577H158.038C159.876 18.0577 160.85 18.5296 160.904 19.5257V24.3489C160.995 24.3267 161.087 24.295 161.183 24.2619C161.313 24.217 161.451 24.1694 161.607 24.1392L162.201 25.1354H141.441C140.9 25.1354 140.143 25.2402 139.224 25.5023L137.926 24.5062H139.44V19.5781C139.44 19.4208 139.278 19.2635 138.954 19.1587V18.6344L143.441 18.0053ZM143.441 24.5587H144.955V18.949C144.694 18.9806 144.393 19.0504 144.078 19.1238C143.87 19.1721 143.655 19.2219 143.441 19.2635V24.5587ZM143.819 12.9199L147.388 12.2908C147.712 12.9723 148.144 13.6014 148.685 14.2306C149.334 13.6014 149.983 12.9199 150.469 12.1859C150.469 12.0811 150.307 12.0286 149.983 12.0286H146.09C145.712 12.0286 145.225 12.0811 144.684 12.2383L143.982 11.5044H152.416C153.172 11.5044 153.659 11.6616 153.929 11.9762C154.794 11.0849 155.173 10.6131 155.173 10.5607C155.173 10.4558 154.957 10.4034 154.47 10.4034H143.819V12.9199ZM149.172 24.5587H150.74V18.6868H149.172V24.5587ZM154.848 24.5587H156.579V19.2635C156.579 18.8441 156.254 18.6868 155.659 18.6868H154.848V24.5587ZM169.175 27.2331H168.851C168.581 27.1282 168.364 27.0758 168.04 27.0758C167.715 27.0758 167.445 27.1806 167.229 27.2855C166.959 27.3903 166.796 27.6001 166.634 27.8098C166.472 28.0195 166.418 28.2816 166.418 28.5437C166.418 28.8059 166.472 29.068 166.634 29.2777C166.796 29.4874 167.013 29.6971 167.229 29.802C167.445 29.9593 167.715 30.0117 168.04 30.0117C168.418 30.0117 168.743 29.9068 169.013 29.7496C169.229 29.6447 169.446 29.435 169.662 29.1729L169.283 28.9632C169.121 29.1729 168.959 29.3301 168.743 29.435C168.581 29.5399 168.418 29.5923 168.256 29.5923C167.932 29.5923 167.715 29.4874 167.553 29.2777C167.391 29.068 167.283 28.8583 167.283 28.5437C167.283 28.334 167.337 28.1768 167.391 28.0195C167.499 27.8622 167.607 27.7573 167.715 27.7049C167.749 27.694 167.781 27.683 167.811 27.6726C167.925 27.6329 168.02 27.6001 168.148 27.6001C168.31 27.6001 168.526 27.6525 168.689 27.8098C168.797 27.9146 168.905 28.0719 169.067 28.334L169.5 28.2292L169.175 27.2331ZM152.469 27.2331H150.901V27.6525H151.064H151.226C151.226 27.6525 151.28 27.6525 151.28 27.7049V27.9146V29.435V29.5923C151.28 29.5923 151.28 29.6447 151.226 29.6447H151.064H150.955V30.0117H152.523V29.6447H152.415H152.199C152.199 29.6447 152.145 29.6447 152.145 29.5923V29.435V28.8583H153.28V29.435V29.5923C153.28 29.5923 153.28 29.6447 153.226 29.6447H153.01H152.902V29.8544H154.47V29.4874H154.362H154.145C154.145 29.4874 154.091 29.4874 154.091 29.435V29.2777V27.7573V27.6001C154.091 27.6001 154.091 27.5476 154.145 27.5476H154.307H154.416V27.1806H152.848V27.5476H152.956H153.172C153.172 27.5476 153.226 27.5476 153.226 27.6001V27.7573V28.2816H152.091V27.8098V27.6525C152.091 27.6525 152.091 27.6001 152.145 27.6001H152.307H152.469V27.2331ZM139.115 27.2333H140.683V27.6002H140.575H140.413L140.359 27.6527C140.359 27.7051 140.359 27.7575 140.413 27.81L140.845 28.4391L141.332 27.81C141.386 27.7575 141.386 27.7051 141.386 27.7051V27.6527V27.6002H141.278H141.116V27.2333H142.359V27.6002C142.251 27.6002 142.197 27.6002 142.143 27.6527C142.089 27.6527 142.035 27.7051 141.981 27.81L141.116 28.9109V29.4352V29.5925C141.116 29.6449 141.17 29.6449 141.17 29.6449H141.332H141.44V30.0119H139.872V29.6449H139.98H140.197C140.251 29.6449 140.251 29.5925 140.251 29.5925V29.4352V29.0158L139.386 27.8624C139.332 27.7575 139.278 27.7051 139.224 27.7051H139.007V27.2333H139.115ZM142.521 27.2333H144.09V27.6002H143.928H143.766L143.711 27.6527V27.81V29.3828V29.54L143.766 29.5925H143.928H144.09V29.9595H142.521V29.6449H142.63H142.792C142.846 29.6449 142.846 29.5925 142.846 29.5925V29.4352V27.8624V27.7051C142.846 27.6527 142.792 27.6527 142.792 27.6527H142.63H142.467L142.521 27.2333ZM145.711 27.2333H144.414V27.6527H144.576H144.684C144.684 27.6527 144.738 27.6527 144.738 27.7051V27.8624V29.4876V29.5925C144.738 29.5925 144.738 29.6449 144.684 29.6449H144.522H144.414V30.0119H145.711V29.6449H145.549H145.387L145.333 29.5925V29.4352V27.9672L146.522 30.0643H147.171V27.8624V27.7051C147.171 27.7051 147.171 27.6527 147.225 27.6527H147.387H147.55V27.2857H146.252V27.6527H146.414H146.576C146.576 27.6527 146.63 27.6527 146.63 27.7051V27.8624V28.8585L145.711 27.2333ZM150.523 28.1769L150.09 28.2818C149.928 28.0721 149.766 27.9148 149.604 27.81C149.442 27.7051 149.225 27.6527 149.009 27.6527C148.901 27.6527 148.793 27.6527 148.685 27.7051C148.631 27.7575 148.577 27.81 148.577 27.8624C148.577 27.8948 148.597 27.9272 148.626 27.972C148.644 27.9996 148.664 28.032 148.685 28.0721C148.739 28.1245 148.901 28.1769 149.063 28.2294L149.658 28.3866C149.982 28.4915 150.253 28.5964 150.361 28.7536C150.523 28.9109 150.577 29.0682 150.577 29.2779C150.577 29.54 150.469 29.7497 150.253 29.907C149.982 30.1167 149.712 30.1692 149.334 30.1692C149.171 30.1692 149.009 30.1692 148.847 30.1167C148.685 30.0643 148.577 30.0119 148.415 29.907L148.306 30.1167H148.036L147.82 29.0158L148.252 28.9109C148.36 29.1206 148.523 29.3303 148.739 29.4876C148.955 29.6449 149.171 29.6973 149.442 29.6973C149.55 29.6973 149.658 29.6973 149.712 29.6449C149.766 29.6449 149.82 29.5925 149.874 29.54C149.928 29.4876 149.928 29.4352 149.928 29.3828C149.928 29.2779 149.874 29.2255 149.82 29.1731C149.712 29.1206 149.55 29.0682 149.334 29.0158L148.793 28.8585C148.76 28.8585 148.705 28.8385 148.631 28.8108C148.585 28.7937 148.531 28.7737 148.469 28.7536C148.36 28.7187 148.3 28.6837 148.24 28.6488C148.21 28.6313 148.18 28.6138 148.144 28.5964C148.117 28.5701 148.09 28.5308 148.063 28.4915L148.063 28.4914C148.036 28.4521 148.009 28.4128 147.982 28.3866C147.928 28.2818 147.928 28.1769 147.928 28.0721C147.928 27.9148 147.982 27.81 148.09 27.6527C148.198 27.5478 148.306 27.443 148.523 27.3381C148.685 27.2857 148.901 27.2333 149.171 27.2333C149.442 27.2333 149.712 27.2857 149.928 27.443L150.036 27.2857H150.253V27.2333L150.523 28.1769ZM156.362 27.2333H158.038C158.254 27.2333 158.416 27.2333 158.579 27.2857C158.741 27.3381 158.849 27.3905 158.957 27.443C159.065 27.4954 159.119 27.6002 159.173 27.7051L159.173 27.7051C159.227 27.81 159.281 27.9148 159.281 28.0721C159.281 28.3342 159.173 28.4915 158.957 28.7012C158.741 28.8585 158.47 28.9633 158.092 28.9633H157.551V29.4876V29.5925L157.605 29.6449H157.768H157.93V30.0119H156.362V29.6449H156.47H156.632C156.686 29.6449 156.686 29.5925 156.686 29.5925V29.4352V27.8624V27.7051C156.686 27.6527 156.632 27.6527 156.632 27.6527H156.47H156.308L156.362 27.2333ZM157.497 27.7051V28.4915H157.768C157.93 28.4915 158.038 28.4915 158.146 28.4391C158.164 28.4216 158.188 28.41 158.212 28.3983C158.26 28.375 158.308 28.3517 158.308 28.2818C158.362 28.2294 158.362 28.1245 158.362 28.0721C158.362 27.9672 158.308 27.8624 158.2 27.7575C158.092 27.7051 157.984 27.6527 157.822 27.6527H157.497V27.7051ZM161.336 27.2333H159.39V27.6527H159.552H159.606H159.714C159.714 27.6527 159.768 27.6527 159.768 27.7051V27.8624V29.4352V29.5925C159.768 29.5925 159.768 29.6449 159.714 29.6449H159.552H159.39V30.1167H160.957V29.7497H160.795H160.633C160.633 29.7497 160.579 29.7497 160.579 29.6973V29.4876V28.9109H160.849L161.876 30.1167H162.904V29.7497H162.742H162.579C162.552 29.7497 162.539 29.7366 162.525 29.7235C162.512 29.7104 162.498 29.6973 162.471 29.6973L162.363 29.5925L162.309 29.54L161.66 28.8585C161.876 28.8061 162.093 28.7536 162.255 28.5964C162.417 28.4391 162.525 28.2818 162.525 28.0721C162.525 27.9148 162.471 27.81 162.417 27.7051C162.363 27.6002 162.255 27.4954 162.147 27.443C162.039 27.3381 161.931 27.2857 161.768 27.2857C161.606 27.2333 161.444 27.2333 161.336 27.2333ZM161.066 28.4391H160.579V27.7051H161.174C161.276 27.7051 161.379 27.7262 161.455 27.7416L161.455 27.7416L161.455 27.7416L161.455 27.7417C161.498 27.7505 161.532 27.7575 161.552 27.7575C161.606 27.7575 161.66 27.81 161.714 27.8624C161.768 27.9148 161.768 28.0197 161.768 28.0721C161.768 28.1769 161.768 28.2294 161.714 28.2818C161.681 28.3142 161.647 28.3266 161.601 28.3437C161.573 28.3542 161.539 28.3666 161.498 28.3866C161.39 28.4391 161.228 28.4391 161.066 28.4391ZM163.066 27.2333H165.715L166.094 28.1245L165.661 28.2818C165.607 28.1245 165.499 28.0197 165.391 27.9148C165.283 27.81 165.174 27.7575 165.066 27.7575C164.958 27.7051 164.796 27.7051 164.688 27.7051H164.201V28.3866H164.364H164.58C164.607 28.3866 164.62 28.3735 164.634 28.3604C164.647 28.3473 164.661 28.3342 164.688 28.3342C164.688 28.3125 164.697 28.2908 164.708 28.2653C164.723 28.2294 164.742 28.1859 164.742 28.1245V28.0197H165.12V29.2255H164.742V29.1206C164.742 29.0158 164.742 28.9633 164.688 28.9633C164.688 28.9109 164.634 28.9109 164.58 28.9109H164.309H164.147V29.54V29.6449C164.147 29.6449 164.147 29.6973 164.201 29.6973H164.364H164.634C164.85 29.6973 165.012 29.6973 165.12 29.6449C165.283 29.5925 165.391 29.4876 165.499 29.3828C165.564 29.3193 165.61 29.2366 165.66 29.1463L165.66 29.1462C165.692 29.0874 165.727 29.0254 165.769 28.9633L166.202 29.0682L165.769 30.1167H163.012V29.6449H163.066H163.282C163.336 29.6449 163.336 29.5925 163.336 29.5925V29.4352V27.9148V27.7575L163.282 27.7051H163.12H162.958V27.2333H163.066ZM169.824 27.2333H171.393V27.6002H171.23H171.068L171.014 27.6527V27.81V29.3828V29.54L171.068 29.5925H171.23H171.393V29.9595H169.824V29.6449H169.932H170.095C170.149 29.6449 170.149 29.5925 170.149 29.5925V29.4352V27.8624V27.7051C170.149 27.6527 170.095 27.6527 170.095 27.6527H169.932H169.77L169.824 27.2333ZM173.933 28.2818L174.365 28.1769L174.095 27.2333V27.2857H173.825L173.717 27.443C173.5 27.2857 173.23 27.2333 172.96 27.2333C172.689 27.2333 172.473 27.2857 172.311 27.3381C172.095 27.443 171.987 27.5478 171.878 27.6527C171.77 27.81 171.716 27.9148 171.716 28.0721C171.716 28.1769 171.716 28.2818 171.77 28.3866C171.797 28.4128 171.824 28.4521 171.851 28.4914L171.851 28.4915C171.878 28.5308 171.906 28.5701 171.933 28.5964C171.969 28.6138 171.999 28.6313 172.029 28.6488C172.089 28.6837 172.149 28.7187 172.257 28.7536C172.319 28.7737 172.373 28.7937 172.419 28.8108C172.494 28.8385 172.548 28.8585 172.581 28.8585L173.122 29.0158C173.338 29.0682 173.5 29.1206 173.609 29.1731C173.663 29.2255 173.717 29.2779 173.717 29.3828C173.717 29.4352 173.717 29.4876 173.663 29.54L173.663 29.5401C173.608 29.5925 173.554 29.6449 173.5 29.6449C173.446 29.6973 173.338 29.6973 173.23 29.6973C172.96 29.6973 172.744 29.6449 172.527 29.4876C172.311 29.3303 172.149 29.1206 172.041 28.9109L171.608 29.0158L171.824 30.1167H172.149L172.257 29.907C172.419 30.0119 172.527 30.0643 172.689 30.1167C172.852 30.1692 173.014 30.1692 173.176 30.1692C173.554 30.1692 173.825 30.1167 174.095 29.907C174.311 29.7497 174.42 29.54 174.42 29.2779C174.42 29.0682 174.365 28.9109 174.203 28.7536C174.095 28.5964 173.825 28.4915 173.5 28.3866L172.906 28.2294C172.743 28.1769 172.581 28.1245 172.527 28.0721C172.507 28.032 172.486 27.9996 172.468 27.972C172.44 27.9272 172.419 27.8948 172.419 27.8624C172.419 27.81 172.473 27.7575 172.527 27.7051C172.635 27.6527 172.743 27.6527 172.852 27.6527C173.068 27.6527 173.284 27.7051 173.446 27.81C173.609 27.9148 173.771 28.0721 173.933 28.2818ZM174.744 27.2333H176.313V27.6002H176.15H175.988L175.934 27.6527V27.81V29.3828V29.54L175.988 29.5925H176.15H176.313V29.9595H174.744V29.6449H174.852H175.014C175.068 29.6449 175.068 29.5925 175.068 29.5925V29.4352V27.8624V27.7051C175.068 27.6527 175.014 27.6527 175.014 27.6527H174.852H174.69L174.744 27.2333ZM179.61 27.6001C179.285 27.3379 178.853 27.1806 178.366 27.1806C177.826 27.1806 177.447 27.2855 177.177 27.6001C176.852 27.8622 176.69 28.2292 176.69 28.6486C176.69 29.1204 176.852 29.4874 177.231 29.7496C177.501 30.0117 177.88 30.1165 178.366 30.1165C178.745 30.1165 179.015 30.0641 179.285 29.9593C179.556 29.8544 179.718 29.6447 179.88 29.435C180.042 29.1729 180.096 28.9107 180.096 28.6486C180.096 28.2292 179.934 27.8622 179.61 27.6001ZM177.772 27.8622C177.934 27.7049 178.15 27.6001 178.366 27.6001C178.411 27.6001 178.465 27.6091 178.528 27.6196C178.618 27.6345 178.726 27.6525 178.853 27.6525C178.961 27.7573 179.069 27.8622 179.123 28.0195C179.177 28.1768 179.231 28.3865 179.231 28.5962C179.231 28.9632 179.123 29.1729 178.961 29.3826C178.799 29.5398 178.582 29.6447 178.366 29.6447C178.096 29.6447 177.934 29.5398 177.772 29.3826C177.609 29.2253 177.501 28.9632 177.501 28.6486C177.501 28.334 177.609 28.0719 177.772 27.8622ZM180.367 27.2333H181.664L182.583 28.8585V27.8624V27.7051C182.583 27.6527 182.529 27.6527 182.529 27.6527H182.367H182.205V27.2857H183.502V27.6527H183.34H183.178C183.124 27.6527 183.124 27.7051 183.124 27.7051V27.8624V30.0643H182.475L181.286 27.9672V29.4352V29.5925L181.34 29.6449H181.502H181.664V30.0119H180.367V29.6449H180.529H180.691C180.745 29.6449 180.745 29.5925 180.745 29.5925V29.4876V27.8624V27.7051C180.745 27.6527 180.691 27.6527 180.691 27.6527H180.583H180.421L180.367 27.2333ZM186.963 27.2333H185.395L185.341 27.6527H185.503H185.665C185.665 27.6527 185.719 27.6527 185.719 27.7051V27.8624V29.4352V29.5925C185.719 29.5925 185.719 29.6449 185.665 29.6449H185.503H185.395V29.9595H186.963V29.5925H186.801H186.639L186.585 29.54V29.3828V27.81V27.6527L186.639 27.6002H186.801H186.963V27.2333ZM187.287 27.2333H188.584L189.503 28.8585V27.8624V27.7051C189.503 27.6527 189.449 27.6527 189.449 27.6527H189.287H189.125V27.2857H190.423V27.6527H190.26H190.098C190.044 27.6527 190.044 27.7051 190.044 27.7051V27.8624V30.0643H189.395L188.206 27.9672V29.4352V29.5925L188.26 29.6449H188.422H188.584V30.0119H187.287V29.6449H187.395H187.557C187.611 29.6449 187.611 29.5925 187.611 29.5925V29.4876V27.8624V27.7051C187.611 27.6527 187.557 27.6527 187.557 27.6527H187.449H187.287V27.2333ZM192.369 27.2333H190.747V27.7051H190.855H191.017L191.071 27.7575V27.9148V29.4352V29.5925C191.071 29.5925 191.071 29.6449 191.017 29.6449H190.855H190.747V30.0119H192.207C192.315 30.0119 192.477 30.0119 192.693 29.9595C192.91 29.9595 193.072 29.907 193.18 29.8546C193.342 29.7497 193.504 29.6449 193.612 29.54C193.775 29.4352 193.883 29.2779 193.937 29.1206C193.991 28.9633 194.045 28.8061 194.045 28.5964C194.045 28.3342 193.937 28.0721 193.829 27.8624C193.666 27.6527 193.504 27.4954 193.288 27.3905C193.072 27.2857 192.747 27.2333 192.369 27.2333ZM191.882 29.4352V27.6527L192.153 27.7051C192.423 27.7051 192.585 27.7575 192.693 27.81C192.837 27.8563 192.896 27.9437 192.982 28.0721C192.993 28.0888 193.005 28.1063 193.018 28.1245C193.072 28.2818 193.126 28.4391 193.126 28.6488C193.126 28.8585 193.126 29.0158 193.018 29.173C192.964 29.3303 192.855 29.4352 192.693 29.4876C192.531 29.54 192.369 29.5925 192.099 29.5925H191.936L191.882 29.54V29.4352ZM194.369 27.2339H195.829V27.6009H195.667H195.505C195.451 27.6009 195.451 27.6533 195.451 27.6533V27.8106V28.8591C195.451 29.0688 195.451 29.1737 195.505 29.2785C195.559 29.3834 195.613 29.4358 195.721 29.4882C195.829 29.5406 195.937 29.5406 196.045 29.5406C196.153 29.5406 196.262 29.4882 196.37 29.4358C196.478 29.3834 196.532 29.3309 196.586 29.2261C196.64 29.1213 196.64 29.0164 196.64 28.8068V28.8067V27.6533V27.5484C196.64 27.496 196.586 27.496 196.586 27.496H196.424H196.316V27.129H197.613V27.496H197.505H197.343C197.289 27.496 197.289 27.5484 197.289 27.5484V27.7057V28.8067C197.289 29.0163 197.235 29.1736 197.181 29.3308L197.181 29.3309C197.072 29.5406 196.964 29.6455 196.748 29.7504C196.532 29.8552 196.316 29.9076 196.045 29.9076C195.829 29.9076 195.667 29.8552 195.505 29.8028C195.342 29.7504 195.234 29.6979 195.072 29.5931C194.964 29.4882 194.856 29.3834 194.802 29.2785C194.748 29.1737 194.748 29.0164 194.748 28.8067V27.7057V27.496C194.748 27.4436 194.694 27.4436 194.694 27.4436H194.531H194.369V27.2339ZM200.046 28.2818L200.479 28.1769L200.208 27.2333V27.2857H199.938L199.83 27.443C199.614 27.2857 199.343 27.2333 199.073 27.2333C198.803 27.2333 198.586 27.2857 198.424 27.3381C198.208 27.443 198.1 27.5478 197.992 27.6527C197.883 27.81 197.829 27.9148 197.829 28.0721C197.829 28.1769 197.829 28.2818 197.883 28.3866C197.911 28.4129 197.938 28.4522 197.965 28.4915C197.992 28.5308 198.019 28.5701 198.046 28.5964C198.082 28.6138 198.112 28.6313 198.142 28.6488C198.202 28.6837 198.262 28.7187 198.37 28.7536C198.432 28.7737 198.486 28.7937 198.532 28.8108C198.607 28.8385 198.661 28.8585 198.694 28.8585L199.235 29.0158C199.451 29.0682 199.614 29.1206 199.722 29.1731C199.776 29.2255 199.83 29.2779 199.83 29.3828C199.83 29.4352 199.83 29.4876 199.776 29.54C199.722 29.5925 199.668 29.6449 199.614 29.6449C199.559 29.6973 199.451 29.6973 199.343 29.6973C199.073 29.6973 198.857 29.6449 198.64 29.4876C198.424 29.3303 198.262 29.1206 198.154 28.9109L197.721 29.0158L197.938 30.1167H198.262L198.37 29.907C198.532 30.0119 198.64 30.0643 198.803 30.1167C198.965 30.1692 199.127 30.1692 199.289 30.1692C199.668 30.1692 199.938 30.1167 200.208 29.907C200.425 29.7497 200.533 29.54 200.533 29.2779C200.533 29.0682 200.479 28.9109 200.316 28.7536C200.208 28.5964 199.938 28.4915 199.614 28.3866L199.019 28.2294C198.803 28.1769 198.694 28.1245 198.64 28.0721C198.62 28.032 198.599 27.9996 198.581 27.972C198.553 27.9272 198.532 27.8948 198.532 27.8624C198.532 27.81 198.586 27.7575 198.64 27.7051C198.749 27.6527 198.857 27.6527 198.965 27.6527C199.181 27.6527 199.397 27.7051 199.559 27.81C199.722 27.9148 199.884 28.0721 200.046 28.2818ZM201.073 27.129H201.398L201.452 27.2339H203.236L203.29 27.129H203.614L203.993 28.1251L203.56 28.2824C203.519 28.2223 203.485 28.1699 203.457 28.1251C203.411 28.0527 203.377 28.0002 203.344 27.9678C203.29 27.863 203.182 27.8106 203.074 27.7581C203.02 27.7057 202.911 27.7057 202.857 27.7057H202.803V27.8106V29.4358V29.5931C202.803 29.5931 202.803 29.6455 202.857 29.6455C202.857 29.6455 202.911 29.6455 202.911 29.6979H203.182V30.0649H201.56V29.6455H201.668H201.884C201.938 29.6455 201.938 29.5931 201.938 29.5931V29.4358V27.7581V27.6533H201.884C201.83 27.6533 201.722 27.7057 201.614 27.7581C201.506 27.8106 201.452 27.863 201.344 27.9678C201.31 28.0002 201.277 28.0527 201.231 28.1251C201.202 28.1699 201.169 28.2223 201.127 28.2824L200.695 28.1251L201.073 27.129ZM206.047 27.2333H204.101L204.155 27.6527H204.263H204.317H204.425C204.425 27.6527 204.479 27.6527 204.479 27.7051V27.8624V29.4352V29.5925C204.479 29.5925 204.479 29.6449 204.425 29.6449H204.263H204.101V30.1167H205.669V29.7497H205.507H205.344C205.344 29.7497 205.29 29.7497 205.29 29.6973V29.4876V28.9109H205.561L206.588 30.1167H207.615V29.7497H207.453H207.291C207.264 29.7497 207.25 29.7366 207.237 29.7235C207.223 29.7104 207.21 29.6973 207.183 29.6973L207.074 29.5925V29.54L206.426 28.8585C206.642 28.8061 206.858 28.7536 207.02 28.5964C207.183 28.4391 207.291 28.2818 207.291 28.0721C207.291 27.9148 207.237 27.81 207.183 27.7051C207.129 27.6002 207.02 27.4954 206.912 27.443C206.75 27.3381 206.642 27.2857 206.48 27.2857C206.318 27.2333 206.155 27.2333 206.047 27.2333ZM205.777 28.4391H205.29V27.7051H205.885C205.988 27.7051 206.091 27.7262 206.166 27.7416C206.209 27.7505 206.244 27.7575 206.263 27.7575C206.318 27.7575 206.372 27.81 206.426 27.8624C206.48 27.9148 206.48 28.0197 206.48 28.0721C206.48 28.1769 206.48 28.2294 206.426 28.2818C206.392 28.3142 206.359 28.3266 206.313 28.3437C206.284 28.3542 206.251 28.3666 206.209 28.3866C206.101 28.4391 205.939 28.4391 205.777 28.4391ZM207.723 27.2333H209.292V27.6002H209.13H208.967L208.913 27.6527V27.81V29.3828V29.54L208.967 29.5925H209.13H209.292V29.9595H207.723V29.6449H207.831H207.994C208.048 29.6449 208.048 29.5925 208.048 29.5925V29.4352V27.8624V27.7051C208.048 27.6527 207.994 27.6527 207.994 27.6527H207.831H207.669L207.723 27.2333ZM211.454 27.2333H210.751L209.724 29.4352C209.724 29.54 209.67 29.5925 209.67 29.5925C209.643 29.5925 209.629 29.6056 209.615 29.6187C209.602 29.6318 209.588 29.6449 209.561 29.6449H209.399V29.9595H210.643V29.5925H210.426C210.372 29.5925 210.318 29.54 210.318 29.54V29.4876C210.318 29.4876 210.372 29.4352 210.372 29.3828L210.481 29.1206H211.454L211.562 29.3828C211.616 29.4876 211.616 29.54 211.616 29.54C211.616 29.54 211.616 29.5925 211.562 29.5925C211.562 29.6449 211.508 29.6449 211.4 29.6449H211.291V30.0643H212.805V29.6973C212.697 29.6973 212.643 29.6973 212.589 29.6449C212.535 29.6449 212.481 29.5401 212.427 29.4353L212.427 29.4352L211.454 27.2333ZM211.021 27.9672L211.346 28.7536H210.697L211.021 27.9672ZM213.13 27.2333H214.589V27.6002H214.481H214.319C214.265 27.6002 214.265 27.6527 214.265 27.6527V27.81V29.4352V29.54C214.265 29.54 214.265 29.5925 214.319 29.5925H214.427C214.644 29.5925 214.806 29.5925 214.914 29.54L214.914 29.54C215.022 29.4876 215.13 29.4352 215.238 29.3303C215.304 29.2668 215.349 29.1841 215.399 29.0938C215.432 29.035 215.466 28.973 215.509 28.9109L215.941 29.0158L215.509 30.0643H213.076V29.6449H213.238H213.4C213.454 29.6449 213.454 29.5925 213.454 29.5925V29.4876V27.8624V27.7051C213.454 27.6527 213.4 27.6527 213.4 27.6527H213.292H213.13V27.2333ZM220.32 27.2331H219.996C219.725 27.1282 219.509 27.0758 219.185 27.0758C218.86 27.0758 218.59 27.1806 218.374 27.2855C218.104 27.3903 217.941 27.6001 217.779 27.8098C217.617 28.0195 217.563 28.2816 217.563 28.5437C217.563 28.8059 217.617 29.068 217.779 29.2777C217.941 29.4874 218.158 29.6971 218.374 29.802C218.59 29.9593 218.86 30.0117 219.185 30.0117C219.563 30.0117 219.888 29.9068 220.158 29.7496C220.374 29.6447 220.591 29.435 220.807 29.1729L220.428 28.9632C220.266 29.1729 220.104 29.3301 219.888 29.435C219.725 29.5399 219.563 29.5923 219.401 29.5923C219.077 29.5923 218.86 29.4874 218.698 29.2777C218.536 29.068 218.428 28.8583 218.428 28.5437C218.428 28.334 218.482 28.1768 218.536 28.0195C218.644 27.8622 218.752 27.7573 218.86 27.7049C218.894 27.694 218.926 27.683 218.956 27.6726C219.07 27.6329 219.165 27.6001 219.293 27.6001C219.455 27.6001 219.671 27.6525 219.834 27.8098C219.942 27.9146 220.05 28.0719 220.212 28.334L220.645 28.2292L220.32 27.2331ZM222.699 27.1806C223.186 27.1806 223.618 27.3379 223.943 27.6001C224.267 27.8622 224.429 28.2292 224.429 28.6486C224.429 28.9107 224.375 29.1729 224.213 29.435C224.051 29.6447 223.888 29.8544 223.618 29.9593C223.348 30.0641 223.077 30.1165 222.699 30.1165C222.212 30.1165 221.834 30.0117 221.564 29.7496C221.185 29.4874 221.023 29.1204 221.023 28.6486C221.023 28.2292 221.185 27.8622 221.51 27.6001C221.78 27.2855 222.158 27.1806 222.699 27.1806ZM222.699 27.6001C222.483 27.6001 222.267 27.7049 222.104 27.8622C221.942 28.0719 221.834 28.334 221.834 28.6486C221.834 28.9632 221.942 29.2253 222.104 29.3826C222.267 29.5398 222.429 29.6447 222.699 29.6447C222.915 29.6447 223.132 29.5398 223.294 29.3826C223.456 29.1729 223.564 28.9632 223.564 28.5962C223.564 28.3865 223.51 28.1768 223.456 28.0195C223.402 27.8622 223.294 27.7573 223.186 27.6525C223.07 27.6525 222.985 27.6374 222.906 27.6235C222.838 27.6113 222.774 27.6001 222.699 27.6001ZM225.673 29.4351C225.565 29.3826 225.457 29.3302 225.348 29.3302C225.24 29.3302 225.132 29.3826 225.024 29.4351C224.97 29.4875 224.916 29.5924 224.916 29.6972C224.916 29.8021 224.916 29.9069 225.024 29.9593C225.132 30.0118 225.24 30.0642 225.348 30.0642C225.477 30.0642 225.537 30.0314 225.611 29.9917C225.63 29.9812 225.65 29.9703 225.673 29.9593C225.727 29.9069 225.781 29.8021 225.781 29.6972C225.781 29.5924 225.781 29.4875 225.673 29.4351ZM226.754 30.7984L226.484 30.5362C226.7 30.3789 226.808 30.2741 226.862 30.2217C226.916 30.1692 226.97 30.0644 226.97 30.012C226.943 30.012 226.93 30.0251 226.916 30.0382C226.903 30.0513 226.889 30.0644 226.862 30.0644H226.754C226.646 30.0644 226.592 30.012 226.538 29.9595C226.484 29.9071 226.43 29.8022 226.43 29.7498C226.43 29.645 226.484 29.5401 226.538 29.4877C226.56 29.4767 226.58 29.4658 226.6 29.4553C226.673 29.4157 226.734 29.3828 226.862 29.3828C226.97 29.3828 227.025 29.3828 227.133 29.4353C227.241 29.4877 227.295 29.5401 227.349 29.645C227.403 29.7498 227.403 29.8022 227.403 29.9071C227.403 30.0644 227.349 30.2217 227.187 30.4314C227.133 30.5362 226.97 30.6935 226.754 30.7984ZM231.079 27.2333H229.565V27.6527H229.727H229.836C229.836 27.6527 229.89 27.6527 229.89 27.7051V27.8624V29.4876V29.5925C229.89 29.5925 229.89 29.6449 229.836 29.6449H229.673H229.511V30.0643H231.944L232.377 29.0158L231.944 28.9109C231.901 28.9729 231.867 29.0349 231.835 29.0937L231.835 29.0938C231.785 29.1841 231.739 29.2668 231.674 29.3303C231.566 29.4352 231.457 29.4876 231.349 29.54C231.241 29.5925 231.079 29.5925 230.863 29.5925H230.755C230.701 29.5925 230.701 29.54 230.701 29.54V29.4352V27.81V27.6527C230.701 27.6527 230.701 27.6002 230.755 27.6002H230.917H231.079V27.2333ZM232.701 27.129H233.025L233.079 27.2339H234.864L234.918 27.129H235.242L235.62 28.1251L235.188 28.2824C235.147 28.2223 235.113 28.1699 235.085 28.1252C235.038 28.0527 235.005 28.0002 234.972 27.9678C234.918 27.863 234.809 27.8106 234.701 27.7581C234.647 27.7057 234.539 27.7057 234.485 27.7057H234.431V27.8106V29.4358V29.5931C234.431 29.5931 234.431 29.6455 234.485 29.6455C234.485 29.6455 234.539 29.6455 234.539 29.6979H234.809V30.0649H233.242V29.6455H233.35H233.566C233.62 29.6455 233.62 29.5931 233.62 29.5931V29.4358V27.7581V27.6533H233.566C233.512 27.6533 233.404 27.7057 233.296 27.7581C233.188 27.8106 233.133 27.863 233.025 27.9678C232.992 28.0002 232.959 28.0526 232.912 28.1251C232.884 28.1699 232.85 28.2223 232.809 28.2824L232.377 28.1251L232.701 27.129ZM237.405 27.2333H235.729L235.783 27.7051H235.891H236.053L236.107 27.7575V27.9148V29.4352V29.5925C236.107 29.5925 236.107 29.6449 236.053 29.6449H235.891H235.783V30.0119H237.242C237.351 30.0119 237.513 30.0119 237.729 29.9595C237.945 29.9595 238.107 29.907 238.216 29.8546C238.378 29.7497 238.54 29.6449 238.648 29.54C238.81 29.4352 238.918 29.2779 238.973 29.1206C239.027 28.9633 239.081 28.8061 239.081 28.5964C239.081 28.3342 238.972 28.0721 238.864 27.8624C238.702 27.6527 238.54 27.4954 238.324 27.3905C238.107 27.2857 237.783 27.2333 237.405 27.2333ZM236.864 29.4352V27.6527L237.134 27.7051C237.405 27.7051 237.567 27.7575 237.675 27.81C237.818 27.8563 237.877 27.9437 237.964 28.0721C237.975 28.0889 237.987 28.1063 237.999 28.1245C238.053 28.2818 238.107 28.4391 238.107 28.6488C238.107 28.8585 238.107 29.0158 237.999 29.173C237.945 29.3303 237.837 29.4352 237.675 29.4876C237.513 29.54 237.351 29.5925 237.08 29.5925H236.918L236.864 29.54V29.4352ZM198.479 15.489L199.776 16.4327H196.586V25.4501H192.964V16.4327C192.531 16.4327 191.883 16.5375 191.126 16.7473L189.828 15.8036H192.964V11.19C192.964 10.8754 192.748 10.6657 192.315 10.5085V10.2463L196.586 9.56477V15.8036C196.965 15.856 197.613 15.7511 198.479 15.489ZM192.585 17.2191V19.2113C192.585 20.7841 192.369 21.9375 191.883 22.6715C191.504 23.3006 191.018 23.8249 190.315 24.3492L189.936 24.1919C190.099 23.4055 190.207 22.7239 190.261 22.1996C190.315 21.4132 190.315 20.4171 190.315 19.2637V18.3725C190.315 18.2152 190.207 18.1104 189.99 18.0579V17.8482L192.585 17.2191ZM190.044 10.5609H190.477C191.829 12.291 192.531 13.6016 192.585 14.5978C192.477 15.122 192.099 15.3842 191.45 15.3842C190.855 15.3842 190.477 15.122 190.423 14.5978C190.207 12.9725 190.099 11.6094 190.044 10.5609ZM199.776 10.5085C199.668 11.7143 199.398 12.658 199.019 13.3395C198.695 14.0211 198.046 14.6502 197.127 15.2269L197.019 15.0696C197.289 13.9162 197.451 12.8152 197.451 11.7143C197.451 11.4521 197.289 11.2949 196.911 11.2424V11.0327L199.776 10.5085ZM197.181 17.2191H197.613C199.235 19.8404 200.046 21.8851 200.1 23.353C199.992 23.9297 199.56 24.2443 198.803 24.2967C198.1 24.2443 197.668 23.9297 197.613 23.353C197.343 20.8366 197.181 18.7919 197.181 17.2191ZM212.589 10.7182L213.887 11.6618H209.021V13.3395H210.427C210.697 13.3395 211.184 13.2347 211.941 13.0249L213.238 13.9686H209.021V15.9609H211.13C211.454 15.9609 212.103 15.856 212.968 15.5939L214.265 16.5375H202.533C202.101 16.5375 201.506 16.6424 200.695 16.8521L199.398 15.9084H204.534V13.9162H203.02C202.641 13.9162 202.155 14.0211 201.506 14.2308L200.154 13.2871H204.534V11.6094H202.912C202.479 11.6094 201.83 11.7143 201.074 11.924L199.776 10.9803H204.534V10.6657C204.534 10.5609 204.372 10.456 204.047 10.4036V10.089L209.021 9.6172V11.0327H210.751C211.076 11.0327 211.67 10.9279 212.589 10.7182ZM207.021 17.2191H210.048C212.319 17.2191 213.4 17.7958 213.4 18.9492V24.087C213.346 24.5589 212.968 24.9258 212.265 25.188C211.724 25.3977 210.967 25.4501 209.994 25.4501C208.751 25.4501 207.615 25.1356 206.642 24.5064L207.183 24.1394C207.778 24.454 208.264 24.6113 208.589 24.6113C208.913 24.6113 209.129 24.4016 209.129 23.9822V22.6715H204.642V25.3977H200.371V18.7919C200.371 18.4249 200.154 18.1104 199.668 18.0055V17.6385L204.642 16.8521V17.3764L204.804 17.3239C205.399 17.2715 206.156 17.2191 207.021 17.2191ZM204.642 19.7356H209.129V18.7395C209.129 18.1104 208.697 17.7958 207.778 17.7958H206.967C206.21 17.7958 205.561 17.8482 205.02 18.0055L204.642 18.1104V19.7356ZM204.642 22.1472H209.129V20.3647H204.642V22.1472ZM133.331 28.7531C134.304 28.7531 135.169 29.487 135.169 30.3783C135.169 31.2696 134.358 32.0035 133.331 32.0035V31.9511C132.357 31.9511 131.546 31.2171 131.546 30.3259C131.546 29.4346 132.357 28.7006 133.331 28.7006V28.7531ZM133.331 31.8462C134.25 31.8462 134.952 31.2171 134.952 30.3783C134.952 29.5919 134.196 28.9103 133.331 28.9103V28.8579C132.411 28.8579 131.709 29.5395 131.709 30.3259C131.709 31.1123 132.411 31.7938 133.331 31.7938V31.8462ZM134.034 29.5392C133.926 29.4868 133.709 29.4343 133.493 29.4343V29.5916C133.556 29.5916 133.601 29.6096 133.638 29.6245C133.665 29.6351 133.687 29.6441 133.709 29.6441C133.763 29.6441 133.818 29.6965 133.872 29.7489C133.926 29.8013 133.926 29.8538 133.926 29.9586C133.926 30.0635 133.872 30.1683 133.763 30.2207C133.748 30.2353 133.729 30.2499 133.707 30.2634C133.624 30.2732 133.532 30.2732 133.439 30.2732V30.2207H133.277H133.007V29.5916C133.007 29.5916 133.007 29.5392 133.061 29.5392H133.277H133.439V29.4343H132.358V29.4868H132.574H132.682C132.736 29.4868 132.736 29.5392 132.736 29.5392V30.9547C132.736 30.9547 132.736 31.0071 132.682 31.0071C132.682 31.0596 132.628 31.0596 132.574 31.0596H132.358V31.1644H133.439V31.0596H133.223C133.169 31.0596 133.115 31.0071 133.115 31.0071C133.061 31.0071 133.061 30.9547 133.061 30.9547V30.2732H133.223C133.25 30.2732 133.29 30.2863 133.331 30.2994C133.371 30.3125 133.412 30.3256 133.439 30.3256V30.2732C133.495 30.2913 133.545 30.3032 133.588 30.3131C133.557 30.321 133.525 30.3256 133.493 30.3256V30.4305C133.52 30.4567 133.547 30.4698 133.574 30.4829C133.601 30.496 133.628 30.5091 133.655 30.5353C133.655 30.557 133.665 30.5787 133.675 30.6042C133.691 30.6402 133.709 30.6836 133.709 30.745C133.709 30.8447 133.731 30.9234 133.747 30.9809L133.747 30.981C133.756 31.0142 133.763 31.0404 133.763 31.0596C133.763 31.1363 133.792 31.1569 133.829 31.183C133.843 31.1925 133.857 31.2028 133.872 31.2169C133.926 31.2693 134.034 31.2693 134.088 31.2693C134.304 31.2693 134.412 31.112 134.466 30.8499H134.358C134.358 30.9023 134.358 30.9547 134.304 31.0071C134.25 31.0596 134.25 31.0596 134.196 31.0596C134.142 31.0596 134.142 31.0596 134.088 31.0071C134.054 30.9747 134.042 30.9423 134.024 30.8976C134.013 30.8699 134 30.8375 133.98 30.7974C133.959 30.7374 133.946 30.6849 133.935 30.6402L133.935 30.6401C133.918 30.5677 133.905 30.5153 133.872 30.4829C133.872 30.4305 133.818 30.378 133.763 30.378C133.73 30.3456 133.676 30.3332 133.601 30.3161L133.588 30.3131C133.632 30.3018 133.673 30.2839 133.707 30.2634C133.769 30.2561 133.825 30.2432 133.872 30.2207C133.98 30.1683 134.034 30.1159 134.088 30.0635C134.142 30.011 134.196 29.9586 134.196 29.8538C134.196 29.6965 134.142 29.5916 134.034 29.5392ZM104.46 16.2756V15.7513H101V16.328C101 16.328 101.649 16.1183 102.027 16.7999C102.406 17.4814 103.811 20.1552 103.811 20.1552L103.487 21.9901C103.487 21.9901 103.487 22.829 102.027 22.9862V23.4056H105.758V22.9862C105.758 22.9862 104.73 22.7765 104.785 22.4095L105.163 20.0503L108.515 16.5902C108.515 16.5902 108.785 16.328 109.164 16.328H110.029C110.029 16.328 110.732 16.328 110.569 17.0096L109.542 22.4095C109.542 22.4095 109.434 22.9338 108.461 22.9338V23.3532H111.813V22.9862C111.813 22.9862 110.84 22.829 110.948 22.1474L112.083 16.4853C112.083 16.4853 112.191 16.1183 113.165 16.1183V15.7513H106.515V16.1183H106.839C106.839 16.1183 107.434 16.2756 107.001 16.8523L104.785 19.3688L103.379 16.7474C103.422 16.7474 103.431 16.7108 103.443 16.6579C103.479 16.5106 103.545 16.237 104.46 16.2756ZM121.544 20.7842L121.004 23.3531H121.707L121.815 22.9861C121.815 22.9861 121.923 22.724 122.626 23.0386C123.329 23.3531 124.788 23.9298 126.248 22.8289C127.708 21.7279 127.329 20.1027 126.194 19.3163C126.042 19.2113 125.89 19.1091 125.74 19.0087C124.766 18.3563 123.898 17.7748 124.086 16.9571C124.302 16.0658 125.545 16.0658 126.14 16.4328C126.735 16.8522 126.735 17.7959 126.735 17.9532H127.492L127.924 15.6464L127.275 15.594C127.275 15.594 127.329 15.9609 126.897 15.8561C126.464 15.7512 124.734 15.3318 123.545 15.9609C122.355 16.5376 122.193 17.8483 122.626 18.792C122.864 19.2535 123.438 19.6397 124 20.0182C124.588 20.4136 125.163 20.8006 125.329 21.2561C125.707 22.1473 124.951 22.9861 123.977 22.8813C123.058 22.7764 122.41 22.3046 122.193 21.7279C121.977 21.1512 122.139 20.8366 122.139 20.8366L121.544 20.7842ZM127.383 23.3531V22.8289C127.383 22.8289 127.492 22.8813 128.086 22.6716C128.627 22.4619 128.735 21.8852 128.735 21.8852L129.708 16.8522C129.87 16.0658 128.681 16.1182 128.681 16.1182V15.594H132.357V16.1182C132.357 16.1182 132.141 16.1182 131.6 16.1706C131.06 16.2231 131.006 16.7998 131.006 16.7998L130.735 18.792H133.871L134.196 16.4852C134.25 16.0658 133.385 16.0658 133.385 16.0658V15.594H136.737V16.1182H136.25C135.709 16.1182 135.601 16.8522 135.601 16.8522C135.601 16.8522 134.79 21.6755 134.736 22.2522C134.682 22.8289 135.655 22.7764 135.655 22.7764V23.3531H132.087V22.7764C132.087 22.7764 132.195 22.7764 132.682 22.724C133.276 22.6192 133.385 21.8852 133.385 21.8852L133.709 19.6308H130.573C130.573 19.6308 130.195 21.8328 130.141 22.3046C130.141 22.7764 131.114 22.8289 131.114 22.8289V23.3531H127.383Z" fill="white"/>
<defs>
<clipPath id="clip0">
<rect width="72" height="28" fill="white" transform="translate(4 6)"/>
</clipPath>
</defs>
</svg>
