<svg xmlns="http://www.w3.org/2000/svg" width="24" height="24" fill="none" viewBox="0 0 24 24">
    <g clip-path="url(#clip0)">
        <path fill="#fff" fill-rule="evenodd" d="M16.707 3.707c-.39-.39-1.024-.39-1.414 0L7.73 11.27c-.376.376-.39.979-.04 1.371l-5.923 6.327c-.358.382-.088 1.008.436 1.01l9.738.029c.165 0 .323-.067.437-.187l1.22-1.282c.392.295.951.264 1.308-.093l7.562-7.561c.39-.39.39-1.024 0-1.414l-5.762-5.762zM3.126 18.98l5.253-5.61 4.488 4.487-1.094 1.15-8.647-.027z" clip-rule="evenodd"/>
    </g>
    <defs>
        <clipPath id="clip0">
            <path fill="#fff" d="M0 0H24V24H0z"/>
        </clipPath>
    </defs>
</svg>
