<svg xmlns="http://www.w3.org/2000/svg" width="24" height="24" fill="none" viewBox="0 0 24 24">
    <path fill="#fff" d="M5.571 15.571c0-.552-.447-1-1-1H4c-.552 0-1 .448-1 1V20c0 .552.448 1 1 1h4.429c.552 0 1-.448 1-1v-.571c0-.553-.448-1-1-1H5.57V15.57zM3 8.43c0 .552.448 1 1 1h.571c.553 0 1-.448 1-1V5.57H8.43c.552 0 1-.447 1-1V4c0-.552-.448-1-1-1H4c-.552 0-1 .448-1 1v4.429zm15.429 10H15.57c-.552 0-1 .447-1 1V20c0 .552.448 1 1 1H20c.552 0 1-.448 1-1v-4.429c0-.552-.448-1-1-1h-.571c-.553 0-1 .448-1 1v2.858zM15.57 3c-.552 0-1 .448-1 1v.571c0 .553.448 1 1 1h2.858V8.43c0 .552.447 1 1 1H20c.552 0 1-.448 1-1V4c0-.552-.448-1-1-1h-4.429z"/>
</svg>
