<svg xmlns="http://www.w3.org/2000/svg" width="24" height="24" fill="none" viewBox="0 0 24 24">
    <path fill="#fff" fill-rule="evenodd" d="M14 5.5c0 .171-.017.338-.05.5H17c.552 0 1 .448 1 1v4.05c.162-.033.329-.05.5-.05 1.38 0 2.5 1.12 2.5 2.5S19.88 16 18.5 16c-.171 0-.338-.017-.5-.05V20c0 .552-.448 1-1 1h-3.05c.033-.162.05-.329.05-.5 0-1.38-1.12-2.5-2.5-2.5S9 19.12 9 20.5c0 .171.017.338.05.5H5c-.552 0-1-.448-1-1v-4.05c.162.033.329.05.5.05C5.88 16 7 14.88 7 13.5S5.88 11 4.5 11c-.171 0-.338.017-.5.05V7c0-.552.448-1 1-1h4.05C9.017 5.838 9 5.671 9 5.5 9 4.12 10.12 3 11.5 3S14 4.12 14 5.5z" clip-rule="evenodd"/>
</svg>
