<svg xmlns="http://www.w3.org/2000/svg" width="24" height="24" fill="none" viewBox="0 0 24 24">
    <path fill="#fff" fill-rule="evenodd" d="M7.5 4H6c-.552 0-1 .448-1 1v15c0 .552.448 1 1 1h12c.552 0 1-.448 1-1V5c0-.552-.448-1-1-1h-1.5v1c0 .828-.672 1.5-1.5 1.5H9c-.828 0-1.5-.672-1.5-1.5V4zm0 12c-.276 0-.5.224-.5.5s.224.5.5.5h6c.276 0 .5-.224.5-.5s-.224-.5-.5-.5h-6zM7 13.5c0-.276.224-.5.5-.5h9c.276 0 .5.224.5.5s-.224.5-.5.5h-9c-.276 0-.5-.224-.5-.5zm.5-3.5c-.276 0-.5.224-.5.5s.224.5.5.5h9c.276 0 .5-.224.5-.5s-.224-.5-.5-.5h-9z" clip-rule="evenodd"/>
    <path stroke="#fff" d="M9.1 4h5.8c.055 0 .1.045.1.1v.8c0 .055-.045.1-.1.1H9.1c-.055 0-.1-.045-.1-.1v-.8c0-.055.045-.1.1-.1z"/>
</svg>
