<svg xmlns="http://www.w3.org/2000/svg" width="24" height="24" fill="none" viewBox="0 0 24 24">
    <path fill="#fff" d="M5 15c0 .552.448 1 1 1h2v2c0 .552.448 1 1 1s1-.448 1-1v-3c0-.552-.448-1-1-1H6c-.552 0-1 .448-1 1zm3-7H6c-.552 0-1 .448-1 1s.448 1 1 1h3c.552 0 1-.448 1-1V6c0-.552-.448-1-1-1s-1 .448-1 1v2zm6 10c0 .552.448 1 1 1s1-.448 1-1v-2h2c.552 0 1-.448 1-1s-.448-1-1-1h-3c-.552 0-1 .448-1 1v3zm2-10V6c0-.552-.448-1-1-1s-1 .448-1 1v3c0 .552.448 1 1 1h3c.552 0 1-.448 1-1s-.448-1-1-1h-2z"/>
</svg>
