<svg xmlns="http://www.w3.org/2000/svg" width="24" height="24" fill="none" viewBox="0 0 24 24">
    <path fill="#fff" d="M21 7h-7c-.552 0-1 .448-1 1s.448 1 1 1h7c.552 0 1-.448 1-1s-.448-1-1-1zM21 15h-7c-.552 0-1 .448-1 1s.448 1 1 1h7c.552 0 1-.448 1-1s-.448-1-1-1zM21 11h-4c-.552 0-1 .448-1 1s.448 1 1 1h4c.552 0 1-.448 1-1s-.448-1-1-1zM12.293 12.707c.39-.39.39-1.024 0-1.414L9.707 8.707C9.077 8.077 8 8.523 8 9.414V11H3c-.552 0-1 .448-1 1s.448 1 1 1h5v1.586c0 .89 1.077 1.337 1.707.707l2.586-2.586z"/>
</svg>
