<?xml version="1.0" encoding="UTF-8"?>
<!DOCTYPE svg PUBLIC "-//W3C//DTD SVG 1.1//EN" "http://www.w3.org/Graphics/SVG/1.1/DTD/svg11.dtd">
<svg xmlns="http://www.w3.org/2000/svg" version="1.1" width="819px" height="139px" style="shape-rendering:geometricPrecision; text-rendering:geometricPrecision; image-rendering:optimizeQuality; fill-rule:evenodd; clip-rule:evenodd" xmlns:xlink="http://www.w3.org/1999/xlink">
<g><path style="opacity:0.887" fill="#fefefe" d="M 327.5,11.5 C 371.168,11.3333 414.835,11.5 458.5,12C 470.71,16.4118 475.377,25.0785 472.5,38C 475.307,50.3873 470.973,59.054 459.5,64C 441.101,64.9602 422.768,64.6269 404.5,63C 395.142,57.3033 391.475,48.97 393.5,38C 393.516,33.9177 393.849,29.9177 394.5,26C 386.841,25.5003 379.174,25.3336 371.5,25.5C 371.5,59.8333 371.5,94.1667 371.5,128.5C 366.167,128.5 360.833,128.5 355.5,128.5C 355.5,94.1667 355.5,59.8333 355.5,25.5C 346.167,25.5 336.833,25.5 327.5,25.5C 327.5,20.8333 327.5,16.1667 327.5,11.5 Z M 411.5,25.5 C 425.837,25.3334 440.171,25.5001 454.5,26C 455.647,33.7538 455.814,41.5872 455,49.5C 440.575,50.6564 426.075,50.8231 411.5,50C 410.209,41.8637 410.209,33.697 411.5,25.5 Z"/></g>
<g><path style="opacity:0.889" fill="#fefefe" d="M 476.5,11.5 C 498.836,11.3334 521.169,11.5 543.5,12C 554.044,17.5897 557.544,26.0897 554,37.5C 550.819,43.357 545.985,46.857 539.5,48C 523.837,48.4999 508.17,48.6666 492.5,48.5C 492.5,53.8333 492.5,59.1667 492.5,64.5C 487.167,64.5 481.833,64.5 476.5,64.5C 476.5,46.8333 476.5,29.1667 476.5,11.5 Z M 492.5,25.5 C 507.833,25.5 523.167,25.5 538.5,25.5C 538.777,28.4475 538.444,31.2809 537.5,34C 522.504,34.4999 507.504,34.6666 492.5,34.5C 492.5,31.5 492.5,28.5 492.5,25.5 Z"/></g>
<g><path style="opacity:0.992" fill="#fefffe" d="M 304.5,13.5 C 305.5,13.5 306.5,13.5 307.5,13.5C 307.5,54.5 307.5,95.5 307.5,136.5C 306.5,136.5 305.5,136.5 304.5,136.5C 304.5,95.5 304.5,54.5 304.5,13.5 Z"/></g>
<g><path style="opacity:0.756" fill="#fefefe" d="M 227.5,25.5 C 245.295,23.7297 260.462,29.063 273,41.5C 278.133,49.0298 280.633,57.3631 280.5,66.5C 271.5,66.5 262.5,66.5 253.5,66.5C 252.79,58.5719 248.79,53.0719 241.5,50C 225.852,47.5806 216.018,54.0806 212,69.5C 210.092,80.7872 211.758,91.4538 217,101.5C 227.965,113.124 239.298,113.457 251,102.5C 252.868,99.3949 254.035,96.0615 254.5,92.5C 256.833,92.5 259.167,92.5 261.5,92.5C 257.582,110.136 246.582,117.969 228.5,116C 217.407,112.907 210.241,105.741 207,94.5C 201.407,76.0359 205.574,60.2025 219.5,47C 229.87,41.1497 240.203,41.1497 250.5,47C 254.578,50.3365 257.245,54.5032 258.5,59.5C 262.846,59.6657 267.179,59.499 271.5,59C 272.428,58.6121 273.095,57.9454 273.5,57C 266.788,40.6232 254.454,32.1232 236.5,31.5C 225.249,31.7984 214.916,34.9651 205.5,41C 197.228,48.3766 192.228,57.5432 190.5,68.5C 189.501,57.5202 189.168,46.5202 189.5,35.5C 181.472,35.169 173.472,35.5023 165.5,36.5C 156.829,54.5088 148.162,72.5088 139.5,90.5C 129.703,72.9114 120.37,54.9114 111.5,36.5C 104.197,35.5027 96.8635,35.1694 89.5,35.5C 89.5,43.5 89.5,51.5 89.5,59.5C 88.5,59.5 87.5,59.5 86.5,59.5C 84.8974,47.0612 77.8974,39.5612 65.5,37C 48.8367,36.5001 32.17,36.3334 15.5,36.5C 15.6666,67.8351 15.5,99.1684 15,130.5C 12.0083,133.181 9.50833,132.681 7.5,129C 8.82549,113.554 9.49215,97.8869 9.5,82C 9.33333,66.5 9.16667,51 9,35.5C 7.02702,33.7721 5.19369,31.9387 3.5,30C 23.8333,29.3333 44.1667,29.3333 64.5,30C 71.1114,30.757 76.9448,33.257 82,37.5C 81.7134,35.1009 80.8801,32.7675 79.5,30.5C 91.1524,29.3341 102.819,29.1675 114.5,30C 123.048,44.9277 131.215,60.0944 139,75.5C 146.447,59.8417 154.28,44.3417 162.5,29C 175.167,28.3333 187.833,28.3333 200.5,29C 201.406,30.6995 201.739,32.5328 201.5,34.5C 197.513,34.6518 196.013,36.6518 197,40.5C 205.403,31.7633 215.57,26.7633 227.5,25.5 Z M 43.5,51.5 C 49.8827,50.4763 55.3827,52.143 60,56.5C 62.7047,69.6345 57.2047,75.3011 43.5,73.5C 43.5,66.1667 43.5,58.8333 43.5,51.5 Z"/></g>
<g><path style="opacity:0.789" fill="#fefefe" d="M 36.5,45.5 C 43.175,45.3337 49.8417,45.5004 56.5,46C 64.2635,48.6715 68.2635,54.1715 68.5,62.5C 68.0841,68.8318 65.4175,73.9985 60.5,78C 52.6112,79.4352 44.6112,79.9352 36.5,79.5C 36.5,68.1667 36.5,56.8333 36.5,45.5 Z M 43.5,51.5 C 43.5,58.8333 43.5,66.1667 43.5,73.5C 57.2047,75.3011 62.7047,69.6345 60,56.5C 55.3827,52.143 49.8827,50.4763 43.5,51.5 Z"/></g>
<g><path style="opacity:0.654" fill="#fcfcfc" d="M 562.5,50.5 C 566.514,50.3345 570.514,50.5012 574.5,51C 577.167,53.6667 577.167,56.3333 574.5,59C 572.19,59.4966 569.857,59.6633 567.5,59.5C 567.5,61.1667 567.5,62.8333 567.5,64.5C 565.833,64.5 564.167,64.5 562.5,64.5C 562.5,59.8333 562.5,55.1667 562.5,50.5 Z M 567.5,54.5 C 571.588,54.2184 572.088,54.8851 569,56.5C 567.97,56.1639 567.47,55.4972 567.5,54.5 Z"/></g>
<g><path style="opacity:0.575" fill="#fdfdfd" d="M 646.5,56.5 C 646.5,58.1667 646.5,59.8333 646.5,61.5C 645.173,63.9642 643.007,64.9642 640,64.5C 636.468,65.192 634.135,63.8587 633,60.5C 632.51,61.7932 632.343,63.1266 632.5,64.5C 630.833,64.5 629.167,64.5 627.5,64.5C 627.541,60.7566 626.874,60.5899 625.5,64C 621.683,65.0234 618.183,64.5234 615,62.5C 613,65.1667 611,65.1667 609,62.5C 605.817,64.5234 602.317,65.0234 598.5,64C 597.5,60.6667 596.5,60.6667 595.5,64C 588.811,66.3604 584.811,64.1938 583.5,57.5C 582.526,59.7427 582.192,62.076 582.5,64.5C 580.833,64.5 579.167,64.5 577.5,64.5C 577.5,60.8333 577.5,57.1667 577.5,53.5C 582.761,53.7068 588.094,53.8735 593.5,54C 595.333,54.5 596.5,55.6667 597,57.5C 600.601,52.6789 604.601,52.3455 609,56.5C 609.495,54.5273 609.662,52.5273 609.5,50.5C 611.167,50.5 612.833,50.5 614.5,50.5C 614.338,52.5273 614.505,54.5273 615,56.5C 618.272,52.9042 621.938,52.5708 626,55.5C 625.021,57.2785 625.354,58.9452 627,60.5C 627.498,57.1832 627.665,53.8499 627.5,50.5C 629.167,50.5 630.833,50.5 632.5,50.5C 632.336,53.1873 632.503,55.854 633,58.5C 636.564,52.6016 641.064,51.9349 646.5,56.5 Z M 602.5,57.5 C 604.713,58.6053 606.88,58.6053 609,57.5C 609.936,60.5695 609.102,61.2361 606.5,59.5C 604.971,59.5288 603.804,60.1955 603,61.5C 602.51,60.2068 602.343,58.8734 602.5,57.5 Z M 638.5,57.5 C 641.569,57.963 642.069,59.2963 640,61.5C 638.812,60.4366 638.312,59.1033 638.5,57.5 Z M 614.5,58.5 C 615.289,58.7828 615.956,59.2828 616.5,60C 615.184,60.5281 614.517,60.0281 614.5,58.5 Z"/></g>
<g><path style="opacity:0.588" fill="#fdfdfd" d="M 668.5,50.5 C 672.257,50.0708 675.757,50.7375 679,52.5C 679.483,53.448 679.649,54.448 679.5,55.5C 678.448,55.3505 677.448,55.5172 676.5,56C 678.333,56.5 679.5,57.6667 680,59.5C 681.177,54.3352 684.344,52.5019 689.5,54C 690.667,54.5 691.5,55.3333 692,56.5C 692.483,55.552 692.649,54.552 692.5,53.5C 694.979,54.0725 697.313,54.0725 699.5,53.5C 700.647,53.8178 701.481,54.4844 702,55.5C 705,52.8333 708,52.8333 711,55.5C 713.043,53.033 715.21,53.033 717.5,55.5C 719.833,52.8333 722.167,52.8333 724.5,55.5C 726.173,53.9137 728.173,53.2471 730.5,53.5C 729.64,56.911 728.474,60.2444 727,63.5C 725.301,64.4061 723.467,64.7394 721.5,64.5C 721.167,60.5 720.833,60.5 720.5,64.5C 718.801,64.6602 717.134,64.4935 715.5,64C 714.475,61.9285 713.642,59.7619 713,57.5C 712.513,64.1307 709.013,66.2974 702.5,64C 700.683,62.2002 699.516,60.0336 699,57.5C 697.648,59.5938 697.148,61.9272 697.5,64.5C 695.234,64.8588 693.401,64.1922 692,62.5C 689.159,64.5037 685.993,65.0037 682.5,64C 681.299,63.0975 680.465,61.9308 680,60.5C 679.535,61.9308 678.701,63.0975 677.5,64C 674.167,64.6667 670.833,64.6667 667.5,64C 664.967,61.916 664.967,59.916 667.5,58C 664.933,55.1784 665.266,52.6784 668.5,50.5 Z M 685.5,57.5 C 687.713,58.6053 689.88,58.6053 692,57.5C 692.936,60.5695 692.102,61.2361 689.5,59.5C 686.612,62.4621 685.279,61.7954 685.5,57.5 Z"/></g>
<g><path style="opacity:0.583" fill="#fdfdfd" d="M 735.5,50.5 C 740.167,50.5 744.833,50.5 749.5,50.5C 749.5,51.5 749.5,52.5 749.5,53.5C 752.044,53.1043 754.211,53.771 756,55.5C 756.5,55 757,54.5 757.5,54C 761.813,53.7977 765.979,53.631 770,53.5C 772.151,53.6431 773.818,54.6431 775,56.5C 779.478,52.269 783.478,52.6023 787,57.5C 787.49,56.2068 787.657,54.8734 787.5,53.5C 790.424,54.3919 793.258,54.7253 796,54.5C 796.483,53.552 796.649,52.552 796.5,51.5C 797.93,51.5792 799.264,51.2458 800.5,50.5C 801.068,52.4346 802.235,53.7679 804,54.5C 807.542,52.9806 810.875,53.3139 814,55.5C 813.206,57.4856 813.706,59.3189 815.5,61C 814.833,62 814.167,63 813.5,64C 809.024,64.1665 804.69,64.3332 800.5,64.5C 799.228,64.4302 798.062,64.0968 797,63.5C 796.667,61.5 796.333,59.5 796,57.5C 795.333,58.8333 794.667,58.8333 794,57.5C 792.648,59.5938 792.148,61.9272 792.5,64.5C 790.833,64.5 789.167,64.5 787.5,64.5C 787.549,59.4612 786.882,59.2945 785.5,64C 782.5,64.6667 779.5,64.6667 776.5,64C 775.5,60.6667 774.5,60.6667 773.5,64C 771.527,64.4955 769.527,64.6621 767.5,64.5C 767.616,67.9103 765.95,69.2436 762.5,68.5C 762.5,67.1667 762.5,65.8333 762.5,64.5C 759.921,64.9167 757.754,64.25 756,62.5C 754.237,63.9437 752.237,64.9437 750,65.5C 745.263,64.5308 740.43,64.1975 735.5,64.5C 735.5,59.8333 735.5,55.1667 735.5,50.5 Z M 761.5,54.5 C 762.634,56.9664 762.801,59.633 762,62.5C 760.764,61.6008 759.93,60.4341 759.5,59C 760.414,57.5936 761.08,56.0936 761.5,54.5 Z M 749.5,56.5 C 753.095,57.9051 753.262,59.5717 750,61.5C 747.26,60.7178 744.426,60.2178 741.5,60C 743.833,59.6667 746.167,59.3333 748.5,59C 749.252,58.3292 749.586,57.4959 749.5,56.5 Z M 767.5,57.5 C 770.569,57.963 771.069,59.2963 769,61.5C 767.812,60.4366 767.312,59.1033 767.5,57.5 Z M 801.5,57.5 C 805.06,59.2825 805.06,60.2825 801.5,60.5C 801.5,59.5 801.5,58.5 801.5,57.5 Z"/></g>
<g><path style="opacity:0.557" fill="#fefefe" d="M 646.5,61.5 C 647.833,59.8333 647.833,58.1667 646.5,56.5C 646.418,54.7483 647.251,53.7483 649,53.5C 651.742,53.4279 654.575,53.7612 657.5,54.5C 658.192,55.0253 658.692,55.6919 659,56.5C 659.497,59.146 659.664,61.8127 659.5,64.5C 657.833,64.5 656.167,64.5 654.5,64.5C 654.228,56.1135 653.394,55.7802 652,63.5C 650.301,64.4061 648.467,64.7394 646.5,64.5C 646.5,63.5 646.5,62.5 646.5,61.5 Z"/></g>
<g><path style="opacity:0.701" fill="#fefefe" d="M 86.5,63.5 C 87.5,63.5 88.5,63.5 89.5,63.5C 89.6666,85.5025 89.5,107.503 89,129.5C 86.2152,133.413 83.3819,133.413 80.5,129.5C 81.7974,122.501 82.4641,115.334 82.5,108C 82.3333,101.167 82.1667,94.3333 82,87.5C 78.2795,91.5505 73.7795,94.3838 68.5,96C 59.5586,97.3459 50.5586,97.8459 41.5,97.5C 41.3335,107.172 41.5002,116.839 42,126.5C 45.4684,129.595 44.8017,131.595 40,132.5C 38.7387,132.241 37.7387,131.574 37,130.5C 36.3333,117.5 36.3333,104.5 37,91.5C 46.7562,90.6798 56.5895,90.1798 66.5,90C 78.7124,85.2951 85.3791,76.4617 86.5,63.5 Z"/></g>
<g><path style="opacity:0.771" fill="#fefefe" d="M 109.5,74.5 C 111.624,75.0312 113.124,76.3645 114,78.5C 122.165,92.8352 130.832,106.835 140,120.5C 149.249,104.999 158.749,89.6657 168.5,74.5C 169.666,92.8242 169.833,111.158 169,129.5C 165.778,132.355 162.944,132.021 160.5,128.5C 161.242,127.713 162.075,127.047 163,126.5C 163.667,116.167 163.667,105.833 163,95.5C 155.9,108.049 148.066,120.049 139.5,131.5C 131.515,120.209 124.015,108.543 117,96.5C 116.5,106.828 116.334,117.161 116.5,127.5C 120.278,128.193 120.278,129.36 116.5,131C 113.975,131.896 111.808,131.396 110,129.5C 109.5,111.17 109.333,92.8364 109.5,74.5 Z"/></g>
<g><path style="opacity:0.888" fill="#fefefe" d="M 408.5,74.5 C 427.167,74.5 445.833,74.5 464.5,74.5C 464.5,79.1667 464.5,83.8333 464.5,88.5C 446.497,88.3334 428.497,88.5001 410.5,89C 408.473,90.3957 408.14,92.0624 409.5,94C 424.167,94.3333 438.833,94.6667 453.5,95C 465.766,99.0323 469.933,107.199 466,119.5C 463.545,124.149 459.712,126.983 454.5,128C 434.836,128.5 415.169,128.667 395.5,128.5C 395.5,123.833 395.5,119.167 395.5,114.5C 414.076,114.826 432.576,114.493 451,113.5C 451.72,111.888 451.554,110.388 450.5,109C 435.167,108.667 419.833,108.333 404.5,108C 394.52,104.21 390.687,97.0437 393,86.5C 396.06,79.5888 401.226,75.5888 408.5,74.5 Z"/></g>
<g><path style="opacity:0.877" fill="#fefefe" d="M 489.5,74.5 C 506.833,74.5 524.167,74.5 541.5,74.5C 541.5,79.1667 541.5,83.8333 541.5,88.5C 523.81,88.2366 506.143,88.57 488.5,89.5C 488.184,97.7524 488.518,105.919 489.5,114C 506.83,114.5 524.163,114.667 541.5,114.5C 541.5,119.167 541.5,123.833 541.5,128.5C 523.164,128.667 504.83,128.5 486.5,128C 479.817,125.984 474.984,121.817 472,115.5C 471.333,106.5 471.333,97.5 472,88.5C 475.124,80.3648 480.957,75.6981 489.5,74.5 Z"/></g>
<g><path style="opacity:0.876" fill="#fefefe" d="M 545.5,74.5 C 566.836,74.3334 588.169,74.5 609.5,75C 622.573,79.3113 627.073,88.1447 623,101.5C 618.718,109.059 612.218,112.559 603.5,112C 608.708,117.376 614.041,122.543 619.5,127.5C 612.189,128.665 604.856,128.831 597.5,128C 587.016,118.682 577.016,108.849 567.5,98.5C 580.487,97.6673 593.487,97.1673 606.5,97C 607.777,94.5341 607.777,92.0341 606.5,89.5C 591.548,88.5163 576.548,88.1829 561.5,88.5C 561.5,101.833 561.5,115.167 561.5,128.5C 556.167,128.5 550.833,128.5 545.5,128.5C 545.5,110.5 545.5,92.5 545.5,74.5 Z"/></g>
<g><path style="opacity:0.881" fill="#fefefe" d="M 628.5,74.5 C 650.836,74.3334 673.169,74.5 695.5,75C 696.467,79.4014 696.8,83.9014 696.5,88.5C 679.167,88.5 661.833,88.5 644.5,88.5C 644.5,90.5 644.5,92.5 644.5,94.5C 660.503,94.3334 676.503,94.5001 692.5,95C 693.833,99.3333 693.833,103.667 692.5,108C 676.503,108.5 660.503,108.667 644.5,108.5C 644.5,110.5 644.5,112.5 644.5,114.5C 661.513,114.167 678.513,114.501 695.5,115.5C 696.809,119.698 696.809,123.864 695.5,128C 673.169,128.5 650.836,128.667 628.5,128.5C 628.5,110.5 628.5,92.5 628.5,74.5 Z"/></g>
<g><path style="opacity:0.841" fill="#fefefe" d="M 698.5,74.5 C 703.844,74.334 709.177,74.5006 714.5,75C 718.876,83.4454 722.876,92.112 726.5,101C 724.406,108.015 721.406,114.515 717.5,120.5C 710.379,105.463 704.045,90.1302 698.5,74.5 Z"/></g>
<g><path style="opacity:0.861" fill="#fefefe" d="M 743.5,74.5 C 748.844,74.334 754.177,74.5006 759.5,75C 760.276,76.7698 760.11,78.6031 759,80.5C 752.167,96.1667 745.333,111.833 738.5,127.5C 733.208,128.495 727.875,128.828 722.5,128.5C 728.714,110.192 735.714,92.192 743.5,74.5 Z"/></g>
<g><path style="opacity:0.859" fill="#fefefe" d="M 772.5,74.5 C 778.167,74.5 783.833,74.5 789.5,74.5C 782.832,92.3312 775.665,109.998 768,127.5C 762.221,128.807 756.388,128.807 750.5,127.5C 758.122,109.926 765.455,92.2598 772.5,74.5 Z"/></g>
<g><path style="opacity:0.863" fill="#fdfdfd" d="M 818.5,74.5 C 818.5,75.8333 818.5,77.1667 818.5,78.5C 810.834,94.509 803.668,110.842 797,127.5C 791.221,128.807 785.388,128.807 779.5,127.5C 786.887,109.824 794.554,92.3243 802.5,75C 807.823,74.5006 813.156,74.334 818.5,74.5 Z"/></g>
<g><path style="opacity:0.757" fill="#fefefe" d="M 189.5,92.5 C 190.5,92.5 191.5,92.5 192.5,92.5C 196.695,115.68 210.695,127.346 234.5,127.5C 257.194,126.47 270.527,114.804 274.5,92.5C 276.5,92.5 278.5,92.5 280.5,92.5C 279.372,112.804 269.038,125.971 249.5,132C 233.723,135.465 218.723,133.465 204.5,126C 201.333,124.167 198.833,121.667 197,118.5C 196.01,122.444 196.51,126.111 198.5,129.5C 195.618,133.413 192.785,133.413 190,129.5C 189.5,117.171 189.333,104.838 189.5,92.5 Z"/></g>
</svg>
