<svg xmlns="http://www.w3.org/2000/svg" width="24" height="24" fill="none" viewBox="0 0 24 24">
    <path fill="#fff" fill-rule="evenodd" d="M20 9.5H4V19c0 .552.448 1 1 1h8.758c-.479-.715-.758-1.575-.758-2.5 0-2.485 2.015-4.5 4.5-4.5.925 0 1.785.28 2.5.758V9.5z" clip-rule="evenodd"/>
    <path fill="#fff" d="M4 6c0-.552.448-1 1-1h14c.552 0 1 .448 1 1v2.5H4V6zM7 4c0-.552.448-1 1-1s1 .448 1 1v1H7V4zM15 4c0-.552.448-1 1-1s1 .448 1 1v1h-2V4z"/>
    <path fill="#fff" fill-rule="evenodd" d="M21 17.5c0 1.933-1.567 3.5-3.5 3.5S14 19.433 14 17.5s1.567-3.5 3.5-3.5 3.5 1.567 3.5 3.5zm-4-2c0-.276.224-.5.5-.5s.5.224.5.5V17h1.5c.276 0 .5.224.5.5s-.224.5-.5.5h-2c-.276 0-.5-.224-.5-.5v-2z" clip-rule="evenodd"/>
</svg>
