<svg xmlns="http://www.w3.org/2000/svg" width="24" height="24" fill="none" viewBox="0 0 24 24">
    <path fill="#fff" fill-rule="evenodd" d="M3.5 5c0-.552.448-1 1-1h15c.552 0 1 .448 1 1v14c0 .552-.448 1-1 1h-15c-.552 0-1-.448-1-1V5zm4 2.5c0-.276.224-.5.5-.5s.5.224.5.5V8H9c.276 0 .5.224.5.5S9.276 9 9 9h-.5v7.5c0 .276-.224.5-.5.5s-.5-.224-.5-.5V9H7c-.276 0-.5-.224-.5-.5S6.724 8 7 8h.5v-.5zM16 7c-.276 0-.5.224-.5.5V12H15c-.276 0-.5.224-.5.5s.224.5.5.5h.5v3.5c0 .276.224.5.5.5s.5-.224.5-.5V13h.5c.276 0 .5-.224.5-.5s-.224-.5-.5-.5h-.5V7.5c0-.276-.224-.5-.5-.5zm-4.5.5c0-.276.224-.5.5-.5s.5.224.5.5V14h.5c.276 0 .5.224.5.5s-.224.5-.5.5h-.5v1.5c0 .276-.224.5-.5.5s-.5-.224-.5-.5V15H11c-.276 0-.5-.224-.5-.5s.224-.5.5-.5h.5V7.5z" clip-rule="evenodd"/>
</svg>
